<?xml version="1.0" encoding="UTF-8"?>
<svg version="1.1" xmlns="http://www.w3.org/2000/svg" width="500" height="500">
<path d="M0 0 C165 0 330 0 500 0 C500 165 500 330 500 500 C335 500 170 500 0 500 C0 335 0 170 0 0 Z " fill="#FEFEFE" transform="translate(0,0)"/>
<path d="M0 0 C3.00869887 1.78524456 5.40952957 3.81905914 7 7 C7 8.98 7 10.96 7 13 C1.39 13 -4.22 13 -10 13 C-9.34 14.32 -8.68 15.64 -8 17 C-4.96293391 17.07062944 -2.28094859 17.06533688 0.6875 16.375 C3 16 3 16 6 18 C6 18.99 6 19.98 6 21 C7.0209375 21.0309375 7.0209375 21.0309375 8.0625 21.0625 C12.48747863 22.47472722 15.10057769 25.45044949 18 29 C19.4375 31.9375 19.4375 31.9375 20 34 C22.97 34.33 25.94 34.66 29 35 C29.06058594 36.14339844 29.12117188 37.28679687 29.18359375 38.46484375 C29.26798428 39.95574305 29.35263302 41.44662775 29.4375 42.9375 C29.47681641 43.69224609 29.51613281 44.44699219 29.55664062 45.22460938 C29.44038024 48.91944187 29.44038024 48.91944187 31 52 C33.5 52.16666667 33.5 52.16666667 36 52 C38.05922402 49.94077598 37.41427579 45.78291876 37.5625 42.9375 C37.62727539 41.79958008 37.62727539 41.79958008 37.69335938 40.63867188 C37.79973633 38.75934562 37.90039934 36.87969756 38 35 C40.64 35 43.28 35 46 35 C46.495 38.465 46.495 38.465 47 42 C47.7425 41.05125 48.485 40.1025 49.25 39.125 C52.42236897 35.36778089 54.39862922 34.17793009 59.375 33.625 C63.72350969 34.07484583 65.67276253 35.20209576 69 38 C71.92957849 41.80845204 72 42.94382797 72 48 C66.39 48 60.78 48 55 48 C55.99 49.98 55.99 49.98 57 52 C60.03706609 52.07062944 62.71905141 52.06533688 65.6875 51.375 C68 51 68 51 71 53 C70.0195412 55.58484592 69.06077857 56.94843031 66.9375 58.75 C62.87324919 60.47946843 59.35413702 60.70649137 55 60 C51.47855885 58.10885568 48.67148386 55.9683154 46 53 C45.62875 53.78375 45.2575 54.5675 44.875 55.375 C42.45861744 58.75793559 41.05010705 59.17497819 37 60 C32.68786975 60.42588941 29.16565996 60.48146825 25.125 58.8125 C21.61781125 55.8210743 19.83589109 52.51381186 19 48 C18.46375 48.886875 17.9275 49.77375 17.375 50.6875 C15.06688542 54.18288216 12.30162207 56.44874658 9 59 C12.5219721 59.08004482 15.61981469 59.04005702 19 58 C20.30245593 60.14522154 21.01434368 61.52665842 20.9375 64.0625 C19.50076303 67.0317564 18.0450344 67.76902865 15 69 C11.42549238 69.05673822 8.1710848 68.6221388 5 66.9375 C0.91281203 65.02163064 -3.80499343 65.60166448 -8 67 C-8.33 65.68 -8.66 64.36 -9 63 C-7.68 62.01 -6.36 61.02 -5 60 C-5.51949219 59.6596875 -6.03898438 59.319375 -6.57421875 58.96875 C-11.67167382 55.42597162 -15.87957398 51.9819358 -18 46 C-18.98032697 39.57966191 -19.06582669 33.90575387 -15.5 28.3125 C-15.0359375 27.71050781 -14.571875 27.10851562 -14.09375 26.48828125 C-12.80260382 25.03922726 -12.80260382 25.03922726 -13 23 C-13.804375 22.195625 -14.60875 21.39125 -15.4375 20.5625 C-18.45567135 17.54432865 -18.87545484 15.92519259 -19.4375 11.75 C-18.85814466 6.78409705 -16.71851931 4.23238261 -13 1 C-8.66531165 -1.70259921 -4.81352029 -1.31580659 0 0 Z " fill="#767677" transform="translate(229,223)"/>
<path d="M0 0 C3.3 0.33 6.6 0.66 10 1 C10.06058594 2.14339844 10.12117188 3.28679687 10.18359375 4.46484375 C10.26798428 5.95574305 10.35263302 7.44662775 10.4375 8.9375 C10.47681641 9.69224609 10.51613281 10.44699219 10.55664062 11.22460938 C10.44038024 14.91944187 10.44038024 14.91944187 12 18 C14.5 18.16666667 14.5 18.16666667 17 18 C19.05922402 15.94077598 18.41427579 11.78291876 18.5625 8.9375 C18.60568359 8.17888672 18.64886719 7.42027344 18.69335938 6.63867188 C18.79973633 4.75934562 18.90039934 2.87969756 19 1 C21.64 1 24.28 1 27 1 C27.33 3.31 27.66 5.62 28 8 C28.7425 7.05125 29.485 6.1025 30.25 5.125 C33.42236897 1.36778089 35.39862922 0.17793009 40.375 -0.375 C44.72350969 0.07484583 46.67276253 1.20209576 50 4 C52.92957849 7.80845204 53 8.94382797 53 14 C47.39 14 41.78 14 36 14 C36.66 15.32 37.32 16.64 38 18 C41.03706609 18.07062944 43.71905141 18.06533688 46.6875 17.375 C49 17 49 17 52 19 C51.0195412 21.58484592 50.06077857 22.94843031 47.9375 24.75 C43.87324919 26.47946843 40.35413702 26.70649137 36 26 C32.47855885 24.10885568 29.67148386 21.9683154 27 19 C26.62875 19.78375 26.2575 20.5675 25.875 21.375 C23.45861744 24.75793559 22.05010705 25.17497819 18 26 C13.68786975 26.42588941 10.16565996 26.48146825 6.125 24.8125 C1.58961299 20.94408167 0.59893688 17.15859891 0.1171875 11.42578125 C-0.06714918 7.61001187 -0.06063154 3.81978707 0 0 Z " fill="#787878" transform="translate(248,257)"/>
<path d="M0 0 C2.97 0 5.94 0 9 0 C9 2.97 9 5.94 9 9 C10.65 9 12.3 9 14 9 C14 11.31 14 13.62 14 16 C12.35 16 10.7 16 9 16 C9 19.3 9 22.6 9 26 C10.32 26 11.64 26 13 26 C13.495 29.465 13.495 29.465 14 33 C10.90826248 34.54586876 8.40570448 34.29359521 5 34 C2.09282927 31.78136971 1.16018357 30.48055071 0 27 C-0.13281695 23.32893957 -0.04323297 19.67480286 0 16 C-5.94 15.01 -5.94 15.01 -12 14 C-11.67 14.99 -11.34 15.98 -11 17 C-8.68895182 18.05047644 -6.35416349 19.05007438 -4 20 C-2 22 -2 22 -1.625 25.375 C-2 29 -2 29 -3.875 31.375 C-8.06929213 34.58239987 -11.85331207 34.53241599 -17 34 C-20.0625 32.5 -20.0625 32.5 -22 31 C-20.25 26.125 -20.25 26.125 -18 25 C-17.01 25.66 -16.02 26.32 -15 27 C-13.68 27 -12.36 27 -11 27 C-11 26.34 -11 25.68 -11 25 C-11.56589844 24.72285156 -12.13179688 24.44570313 -12.71484375 24.16015625 C-13.44832031 23.79792969 -14.18179687 23.43570312 -14.9375 23.0625 C-15.66839844 22.70285156 -16.39929688 22.34320313 -17.15234375 21.97265625 C-19 21 -19 21 -20 20 C-20.34432851 16.99942298 -20.58512314 14.8974848 -20 12 C-16.87569107 8.95189372 -14.90232243 8.08202931 -10.5625 7.6875 C-7.01317763 7.99884407 -3.5163007 8.42591009 0 9 C0 6.03 0 3.06 0 0 Z " fill="#7A7A7A" transform="translate(322,249)"/>
<path d="M0 0 C-0.99 2.31 -1.98 4.62 -3 7 C-4.42892578 6.93039063 -4.42892578 6.93039063 -5.88671875 6.859375 C-7.14097656 6.82328125 -8.39523438 6.7871875 -9.6875 6.75 C-10.92886719 6.70359375 -12.17023438 6.6571875 -13.44921875 6.609375 C-17.5696687 7.06266982 -19.10787892 8.10251321 -22 11 C-23.74133689 14.48267379 -22.86930681 18.29886039 -22 22 C-20.09936318 24.45243461 -18.74145145 25.62927427 -16 27 C-14.54420413 27.09555417 -13.0839204 27.12984691 -11.625 27.125 C-10.85414063 27.12757813 -10.08328125 27.13015625 -9.2890625 27.1328125 C-7.0671811 27.00389788 -5.13381492 26.61383717 -3 26 C0 31.75 0 31.75 0 34 C-6.42007045 36.80148529 -12.29270966 38.57474101 -19.171875 36.2734375 C-24.64453081 33.74284853 -28.37697006 30.35059508 -31.8125 25.375 C-33.70050098 20.00910248 -34.04145456 14.4453151 -32.37890625 8.9453125 C-29.76042437 3.70834874 -24.64213393 -0.76613422 -19.0859375 -2.6484375 C-12.28529633 -3.79461298 -5.92415191 -3.84269313 0 0 Z " fill="#2079FE" transform="translate(158,211)"/>
<path d="M0 0 C2.375 1 2.375 1 4 2 C4.33 1.67 4.66 1.34 5 1 C7.64 1 10.28 1 13 1 C13 8.92 13 16.84 13 25 C10.36 25 7.72 25 5 25 C5 24.34 5 23.68 5 23 C4.319375 23.495 3.63875 23.99 2.9375 24.5 C-0.76618806 26.39124497 -2.88392445 26.57769481 -7 26 C-10.44714432 23.94587976 -12.77431755 21.33852368 -15 18 C-15.75880093 13.36778501 -15.41508256 9.83016511 -13.3125 5.625 C-9.27311724 1.0397547 -6.16884306 -0.6562599 0 0 Z " fill="#2078FE" transform="translate(173,222)"/>
<path d="M0 0 C3.00869887 1.78524456 5.40952957 3.81905914 7 7 C7 8.98 7 10.96 7 13 C1.39 13 -4.22 13 -10 13 C-9.34 14.32 -8.68 15.64 -8 17 C-4.96293391 17.07062944 -2.28094859 17.06533688 0.6875 16.375 C3 16 3 16 6 18 C4.96008872 21.01574271 4.03085171 21.97991051 1.3125 23.75 C-3.00579073 25.37954367 -6.4622109 25.92616221 -10.89453125 24.30859375 C-15.29391824 22.09500746 -17.40462474 19.78612579 -19 15 C-19.58129814 11.4476225 -19.73784125 9.17959087 -17.79296875 6.0703125 C-12.57467352 -0.29732877 -8.08802644 -2.2109138 0 0 Z " fill="#2178FD" transform="translate(229,223)"/>
<path d="M0 0 C3.44760716 2.12724697 5.70609439 4.11828318 7 8 C7 9.65 7 11.3 7 13 C1.06 13 -4.88 13 -11 13 C-10.01 14.32 -9.02 15.64 -8 17 C-5.03248635 17.31569294 -2.73814578 17.2171017 0.125 16.375 C2.65172384 15.86965523 3.84954734 16.69436803 6 18 C4.98601968 21.26726992 3.93743422 22.03702873 0.9375 23.8125 C-3.4632408 25.48459776 -7.5016248 25.24064006 -12 24 C-15.97108701 21.63424604 -17.85325363 19.48273581 -19 15 C-19.4588558 10.79382186 -19.27788643 8.55577287 -17.375 4.75 C-12.33084882 -1.0905961 -7.21896753 -1.97123098 0 0 Z " fill="#2279FE" transform="translate(256,223)"/>
<path d="M0 0 C3.3 0.33 6.6 0.66 10 1 C10.06058594 2.14339844 10.12117188 3.28679687 10.18359375 4.46484375 C10.26798428 5.95574305 10.35263302 7.44662775 10.4375 8.9375 C10.47681641 9.69224609 10.51613281 10.44699219 10.55664062 11.22460938 C10.44038024 14.91944187 10.44038024 14.91944187 12 18 C14.5 18.16666667 14.5 18.16666667 17 18 C19.05922402 15.94077598 18.41427579 11.78291876 18.5625 8.9375 C18.60568359 8.17888672 18.64886719 7.42027344 18.69335938 6.63867188 C18.79973633 4.75934562 18.90039934 2.87969756 19 1 C21.64 1 24.28 1 27 1 C27.08120751 3.89640118 27.14059421 6.79050912 27.1875 9.6875 C27.21263672 10.50412109 27.23777344 11.32074219 27.26367188 12.16210938 C27.32158905 16.93062349 27.17140601 20.16132417 24 24 C19.25043243 26.37478379 14.21300115 26.61669515 9 26 C4.78755162 24.26007567 2.81124903 22.16587277 1 18 C-0.19049905 12.05906297 -0.09575672 6.03267354 0 0 Z " fill="#787878" transform="translate(248,257)"/>
<path d="M0 0 C3 1.8125 3 1.8125 5 5 C5.89114647 10.26013005 5.89911556 14.50147407 3.125 19.125 C-0.31908008 22.16389418 -2.45147943 22.27291123 -7 22 C-10.34265205 20.79293121 -10.94704566 20.07943151 -13 17 C-13.75311944 11.43484373 -13.98481152 6.60031871 -11 1.75 C-7.13981815 -0.50177275 -4.35715795 -1.04536652 0 0 Z " fill="#FBFBFB" transform="translate(234,252)"/>
<path d="M0 0 C-0.59857248 3.3520059 -1.52793389 5.61317755 -4 8 C-7.125 8.1875 -7.125 8.1875 -10 8 C-11.99616554 9.99616554 -11.40983427 13.81701963 -11.5625 16.5625 C-11.60568359 17.27341797 -11.64886719 17.98433594 -11.69335938 18.71679688 C-11.79971777 20.47761912 -11.90038846 22.2387832 -12 24 C-14.97 24 -17.94 24 -21 24 C-21 16.08 -21 8.16 -21 0 C-18.03 0 -15.06 0 -12 0 C-12 0.66 -12 1.32 -12 2 C-11.319375 1.484375 -10.63875 0.96875 -9.9375 0.4375 C-6.19881168 -1.39207088 -3.99556587 -0.86178872 0 0 Z " fill="#297EFE" transform="translate(211,223)"/>
<path d="M0 0 C-0.75 5.75 -0.75 5.75 -3 8 C-6.625 8.125 -6.625 8.125 -10 8 C-11.4807848 10.9615696 -11.35314037 13.83506295 -11.5625 17.125 C-11.64628906 18.40632813 -11.73007812 19.68765625 -11.81640625 21.0078125 C-11.87699219 21.99523437 -11.93757813 22.98265625 -12 24 C-14.64 24 -17.28 24 -20 24 C-20 16.08 -20 8.16 -20 0 C-17.36 0 -14.72 0 -12 0 C-11.67 0.66 -11.34 1.32 -11 2 C-10.484375 1.484375 -9.96875 0.96875 -9.4375 0.4375 C-6.0289729 -1.57265701 -3.76893143 -0.79727396 0 0 Z " fill="#1F78FE" transform="translate(285,223)"/>
<path d="M0 0 C0.33 0 0.66 0 1 0 C1.2475 1.60875 1.2475 1.60875 1.5 3.25 C2.20499298 5.84374281 2.69138137 6.78144762 4.9140625 8.35546875 C6.91719422 9.3358 8.91193558 10.21818983 11 11 C10.67 11.99 10.34 12.98 10 14 C7.23723823 13.47731534 4.6739124 12.89130413 2 12 C1.01 12.99 0.02 13.98 -1 15 C-1.38027344 14.49597656 -1.76054687 13.99195313 -2.15234375 13.47265625 C-3.94884309 11.72749286 -3.94884309 11.72749286 -6.62890625 11.99609375 C-7.59699219 12.14175781 -8.56507813 12.28742188 -9.5625 12.4375 C-12.50390625 12.87109375 -12.50390625 12.87109375 -15 13 C-15.66 12.34 -16.32 11.68 -17 11 C-17 10.01 -17 9.02 -17 8 C-11.39 8 -5.78 8 0 8 C-0.33 6.02 -0.66 4.04 -1 2 C-0.67 1.34 -0.34 0.68 0 0 Z " fill="#E7E7E7" transform="translate(301,263)"/>
<path d="M0 0 C0.33 0 0.66 0 1 0 C1.08636719 0.66386719 1.17273438 1.32773438 1.26171875 2.01171875 C2.18832751 7.83490224 3.08015428 11.28011665 8 15 C8.99 15.33 9.98 15.66 11 16 C11 16.66 11 17.32 11 18 C10.01 18.33 9.02 18.66 8 19 C5.95880212 17.38405168 3.95927063 15.7143618 2 14 C1.01 13.67 0.02 13.34 -1 13 C-1.33 12.01 -1.66 11.02 -2 10 C-5.58327753 8.99782936 -5.58327753 8.99782936 -9 10 C-12 10.1875 -12 10.1875 -15 10 C-15.66 9.34 -16.32 8.68 -17 8 C-17 7.01 -17 6.02 -17 5 C-11.39 5 -5.78 5 0 5 C0 3.35 0 1.7 0 0 Z " fill="#EFF3FA" transform="translate(236,231)"/>
<path d="M0 0 C0.66 0.66 1.32 1.32 2 2 C1.8125 5.5 1.8125 5.5 1 9 C-2 11 -2 11 -4.5625 10.75 C-7 10 -7 10 -9 8 C-9.375 5.0625 -9.375 5.0625 -9 2 C-6.12524616 -1.3006433 -4.03854228 -1.38160657 0 0 Z " fill="#F0F4FC" transform="translate(176,230)"/>
<path d="M0 0 C0.33 0.99 0.66 1.98 1 3 C1.99 3 2.98 3 4 3 C4.33 6.96 4.66 10.92 5 15 C4.01 15.33 3.02 15.66 2 16 C1.9175 14.906875 1.835 13.81375 1.75 12.6875 C1.35193457 9.03969994 1.35193457 9.03969994 -0.75 7.1875 C-3.11768392 5.93788904 -5.48237566 4.90914212 -8 4 C-8 3.01 -8 2.02 -8 1 C-5.36 1.33 -2.72 1.66 0 2 C0 1.34 0 0.68 0 0 Z " fill="#F1F1F1" transform="translate(318,262)"/>
<path d="M0 0 C5.94 0 11.88 0 18 0 C16.50008661 2.99982678 14.19498373 3.31502364 11.1328125 4.390625 C8.27484104 5.20718828 5.94549657 5.41099952 3 5 C1.125 3.625 1.125 3.625 0 2 C0 1.34 0 0.68 0 0 Z " fill="#D6E1F2" transform="translate(245,236)"/>
<path d="M0 0 C5.28 0 10.56 0 16 0 C14.02 0.99 14.02 0.99 12 2 C11.071875 2.556875 11.071875 2.556875 10.125 3.125 C7.34632958 4.26915841 4.97373305 4.13516968 2 4 C1.34 2.68 0.68 1.36 0 0 Z " fill="#F1F1F1" transform="translate(284,272)"/>
<path d="M0 0 C5.61 0 11.22 0 17 0 C17 0.66 17 1.32 17 2 C12.05 2 7.1 2 2 2 C1.67 2.66 1.34 3.32 1 4 C0.67 2.68 0.34 1.36 0 0 Z " fill="#DCE5F1" transform="translate(219,236)"/>
<path d="M0 0 C0.66 0.99 1.32 1.98 2 3 C5.46122857 6.80909803 5.46122857 6.80909803 10 9 C10 9.66 10 10.32 10 11 C9.01 11.33 8.02 11.66 7 12 C4.95880212 10.38405168 2.95927063 8.7143618 1 7 C0.01 6.67 -0.98 6.34 -2 6 C-1.33333333 4 -0.66666667 2 0 0 Z " fill="#D8E0EB" transform="translate(237,238)"/>
<path d="M0 0 C1.98 0 3.96 0 6 0 C6.66 1.32 7.32 2.64 8 4 C5.03 4 2.06 4 -1 4 C-0.67 2.68 -0.34 1.36 0 0 Z " fill="#CBDBF5" transform="translate(247,228)"/>
<path d="M0 0 C-0.83144531 0.54527344 -0.83144531 0.54527344 -1.6796875 1.1015625 C-6.22486888 4.25569192 -8.91239459 6.29007157 -10 12 C-10.33 12 -10.66 12 -11 12 C-11.34751969 9.08083462 -11.53280018 6.86804524 -9.95703125 4.30078125 C-6.59784683 0.23232622 -5.10339725 -1.53101917 0 0 Z " fill="#DBE4F4" transform="translate(145,218)"/>
<path d="M0 0 C1.65 0 3.3 0 5 0 C5.66 1.32 6.32 2.64 7 4 C4.03 4 1.06 4 -2 4 C-1.34 2.68 -0.68 1.36 0 0 Z " fill="#DFDFDF" transform="translate(286,263)"/>
<path d="M0 0 C1.65 0 3.3 0 5 0 C5.66 1.32 6.32 2.64 7 4 C4.03 4 1.06 4 -2 4 C-1.34 2.68 -0.68 1.36 0 0 Z " fill="#D2E0F5" transform="translate(221,228)"/>
<path d="M0 0 C2.64 0.33 5.28 0.66 8 1 C7.01 2.32 6.02 3.64 5 5 C2.525 4.01 2.525 4.01 0 3 C0 2.01 0 1.02 0 0 Z " fill="#E2E2E2" transform="translate(310,263)"/>
<path d="M0 0 C0 0.66 0 1.32 0 2 C-1.65385233 3.34919532 -3.321702 4.68133728 -5 6 C-5.66 6.99 -6.32 7.98 -7 9 C-7.25 6.1875 -7.25 6.1875 -7 3 C-4.54157496 0.45680168 -3.57478534 0 0 0 Z " fill="#DAE4F4" transform="translate(174,229)"/>
<path d="M0 0 C1.98 0.66 3.96 1.32 6 2 C5.67 2.99 5.34 3.98 5 5 C3.35 4.67 1.7 4.34 0 4 C0 2.68 0 1.36 0 0 Z " fill="#DEDEDE" transform="translate(306,272)"/>
<path d="M0 0 C2.64 0 5.28 0 8 0 C7.01 1.485 7.01 1.485 6 3 C2.875 3.1875 2.875 3.1875 0 3 C0 2.01 0 1.02 0 0 Z " fill="#F3F6FB" transform="translate(248,238)"/>
<path d="M0 0 C0.721875 0.103125 1.44375 0.20625 2.1875 0.3125 C0.00184857 2.49815143 -2.09318905 3.85335754 -4.8125 5.3125 C-5.8025 5.3125 -6.7925 5.3125 -7.8125 5.3125 C-3.50480769 0.38942308 -3.50480769 0.38942308 0 0 Z " fill="#E8E8E8" transform="translate(228.8125,251.6875)"/>
<path d="M0 0 C0 0.99 0 1.98 0 3 C-0.33 3.33 -0.66 3.66 -1 4 C-0.34 4.66 0.32 5.32 1 6 C-0.98 6 -2.96 6 -5 6 C-5.33 5.34 -5.66 4.68 -6 4 C-4.02 2.68 -2.04 1.36 0 0 Z " fill="#E3E3E3" transform="translate(243,277)"/>
</svg>
